<?xml version="1.0" encoding="utf-8"?>
<!-- Generator: Adobe Illustrator 18.1.1, SVG Export Plug-In . SVG Version: 6.00 Build 0)  -->
<svg version="1.1" id="Layer_1" xmlns="http://www.w3.org/2000/svg" xmlns:xlink="http://www.w3.org/1999/xlink" x="0px" y="0px"
	 viewBox="0 0 285 82" enable-background="new 0 0 285 82" xml:space="preserve">
<g>
	<g>
		<path fill="#00524C" d="M213.9,70.2l-0.6,0.1l-2.4,2.4c7.6-1.6,18.5-2.6,30.6-2.6c12.1,0,23,1,30.6,2.6l2.5-2.5
			c-7.8-1.6-18.8-2.5-30.3-2.5C232.8,67.6,221.7,68.6,213.9,70.2z"/>
		<path fill="#00524C" d="M213.3,70.3l0.1-0.6c1.7-7.8,2.6-18.9,2.6-30.5c0-11.5-0.9-22.5-2.6-30.3l-2.5,2.5
			c1.6,7.6,2.6,18.5,2.6,30.6c0,12.1-1,23-2.6,30.6L213.3,70.3L213.3,70.3z"/>
		
			<radialGradient id="SVGID_1_" cx="3046.5349" cy="650.6165" r="68" gradientTransform="matrix(0.5555 0 0 0.5555 -1448.2324 -327.6656)" gradientUnits="userSpaceOnUse">
			<stop  offset="0" style="stop-color:#7EA8AD"/>
			<stop  offset="0.1269" style="stop-color:#5F9295"/>
			<stop  offset="0.2931" style="stop-color:#3D7B7B"/>
			<stop  offset="0.4629" style="stop-color:#226966"/>
			<stop  offset="0.6353" style="stop-color:#0F5C57"/>
			<stop  offset="0.8121" style="stop-color:#04544F"/>
			<stop  offset="1" style="stop-color:#00524C"/>
		</radialGradient>
		<path fill="url(#SVGID_1_)" d="M214.3,69.4c7.8-1.6,18.7-2.5,30.1-2.5c11.4,0,22.3,0.9,30.1,2.5c-1.6-7.8-2.5-18.7-2.5-30.1
			c0-11.4,0.9-22.3,2.5-30.1c-7.8,1.6-18.7,2.5-30.1,2.5c-11.3,0-22.3-0.9-30.1-2.5c1.6,7.8,2.5,18.7,2.5,30.1
			C216.8,50.6,215.9,61.5,214.3,69.4z"/>
		<path fill="#FFFFFF" d="M274.9,8.7c-7.6,1.6-18.5,2.6-30.6,2.6c-12.1,0-23-1-30.6-2.6L213.5,9c1.6,7.8,2.6,18.8,2.6,30.3
			c0,11.6-0.9,22.7-2.6,30.5l-0.1,0.6l0,0l0.6-0.1c7.8-1.7,18.9-2.6,30.5-2.6c11.5,0,22.5,0.9,30.3,2.5l0.3-0.3
			c-1.6-7.6-2.6-18.5-2.6-30.6C272.3,27.2,273.3,16.3,274.9,8.7z M274.5,69.4c-7.8-1.6-18.7-2.5-30.1-2.5c-11.3,0-22.3,0.9-30.1,2.5
			c1.6-7.8,2.5-18.7,2.5-30.1c0-11.4-0.9-22.3-2.5-30.1c7.8,1.6,18.7,2.5,30.1,2.5c11.4,0,22.3-0.9,30.1-2.5
			c-1.6,7.8-2.5,18.7-2.5,30.1C272,50.6,272.9,61.6,274.5,69.4z"/>
	</g>
	<g>
		<g>
			<g>
				<path fill="#FFFFFF" d="M250.7,31.6c0-0.4-0.5-1-0.7-1.2l-0.2-0.1l0.2-0.1c0.1,0,0.1-0.1,0.1-0.2c0-0.3-0.6-0.8-1.1-1l-0.2-0.1
					l0.2-0.1c0,0,0,0,0.1,0c-0.1-0.1-0.2-0.3-0.3-0.4c-0.1,0.1-0.2,0.2-0.5,0.2c-0.3,0-0.8-0.2-1.2-0.5l0,0c0,0-1.2-1.4-2.2-2.1
					c0.5,0.9,0.9,2.1,1,2.3c0.6,1,1.1,0.9,1.1,0.9l0.1,0l0,0.2c0.1,1.1,0.7,1.1,0.7,1.1l0.1,0l0,0.1c0,1,0.7,1.3,0.7,1.3l0.1,0
					l0,0.1c0,0.9,0.3,1.6,0.4,1.6l0,0l0,0c0,0.3,0.4,0.9,0.7,1.2c0.1,0,0.2-0.1,0.3-0.2c0.2-0.3,0.1-0.9,0.1-1.1l0-0.1l0.1-0.1
					c0.6-0.5,0.2-1.1,0.2-1.1l-0.1-0.1l0.1-0.1C250.6,31.8,250.7,31.7,250.7,31.6z"/>
				<path fill="#FFFFFF" d="M254.1,31L254.1,31c0.3-1.2-0.4-1.7-0.4-1.8l-0.1-0.1l0-0.1c0.1-0.2,0-0.4-0.1-0.6
					c-0.3-0.6-1.3-0.9-1.3-0.9l-0.1,0l0.1-0.1c0.1-0.2,0.1-0.3,0-0.4c-0.2-0.4-1.2-0.5-1.6-0.5h-0.2l0.1-0.2c0-0.1,0-0.1,0-0.2
					c0,0,0,0-0.1,0c-0.3,0-0.6-0.1-1-0.3c-0.1,0.2-0.5,0.5-1.3,0.5c-0.2,0-0.3,0-0.5,0l0,0c0,0-1.7-0.7-2.8-0.8c-0.1,0-0.1,0-0.2,0
					c0,0,0,0,0,0c0.1,0,0.1,0.1,0.2,0.2c0.1,0.1,0.2,0.2,0.4,0.3c0.9,0.7,1.9,1.8,2,2c0.4,0.3,0.8,0.5,1.1,0.5
					c0.3,0,0.4-0.2,0.4-0.2l0-0.1l0.1-0.1l0.1,0.2c0.1,0.2,0.3,0.4,0.4,0.6c0,0,0.1,0.1,0.1,0.1c0.2,0.2,0.4,0.3,0.6,0.3
					c0.1,0,0.2,0,0.2-0.1l0.1-0.1l0.1,0.1c0.5,1,1.1,1.2,1.3,1.2c0,0,0.1,0,0.1,0l0.1,0l0,0.1c0.6,1.1,1.2,1.7,1.2,1.7l0,0l0,0
					c0.2,0.5,1,0.8,1.3,1C255,32.3,254.1,31,254.1,31L254.1,31z"/>
				<path fill="#FFFFFF" d="M256.2,26.6c-0.1-0.5-0.8-0.9-0.8-0.9l-0.1,0v-0.1c0-1-0.8-1.1-0.8-1.1l-0.1,0l0-0.1
					c0-0.2,0-0.3-0.1-0.4c-0.1-0.2-0.5-0.3-0.9-0.3c-0.3,0-0.6,0-0.6,0l-0.2,0l0.1-0.2c0-0.1,0-0.2,0-0.3c0-0.1-0.2-0.1-0.3-0.1
					c-0.5,0-1.4,0.3-1.4,0.3l-0.2,0.1l0-0.2c0-0.1,0-0.2-0.1-0.3c-0.1-0.1-0.2-0.1-0.4-0.1c-0.5,0-1.1,0.2-1.1,0.2l-0.1,0
					c-0.2,0.1-0.5,0.2-0.8,0.2c0,0.3-0.2,0.7-1.1,1.2l0,0c0,0-0.5,0.1-1,0.3c-0.3,0.1-0.7,0.2-1,0.3c0,0,0,0,0,0
					c0.1,0,0.2,0,0.3,0.1c1,0.2,2.2,0.7,2.4,0.7c0.2,0,0.3,0,0.4,0c0.9,0,1.1-0.4,1.1-0.5l0.1-0.1l0.1,0.1c0.4,0.2,0.7,0.4,1,0.4h0
					c0,0,0.1,0,0.1,0c0,0,0.1,0,0.1,0c0.1-0.1,0.2-0.1,0.2-0.1l0.1-0.1l0.1,0.1c0.3,0.3,0.7,0.5,1.1,0.5c0.3,0,0.6-0.1,0.6-0.1
					l0.1,0l0.1,0.1c0.8,0.6,1.6,0.9,1.6,0.9l0,0l0,0c0.1,0.2,0.5,0.2,1,0.2l0,0c0.2,0,0.5,0,0.6,0C256.2,26.9,256.3,26.7,256.2,26.6
					z"/>
				<path fill="#FFFFFF" d="M247.1,24.2c0.9-0.4,1-0.9,1-1c0,0,0,0,0,0l0-0.1v0l0.1,0h0.1c0.2,0,0.3,0,0.4,0c0,0,0.1,0,0.1,0
					c0.1,0,0.2-0.1,0.3-0.1c0,0,0.1-0.1,0.1-0.1c0.2-0.1,0.2-0.3,0.2-0.3l0-0.1l0.1,0c0.1,0,0.2,0,0.3,0c0.8,0,1.1-0.6,1.1-0.6
					l0-0.1l0.1,0c0.1,0,0.3,0,0.4,0c0.6,0,1.1-0.2,1.1-0.2l0,0l0,0c0,0,0.1,0,0.1,0l0,0c0.3,0,0.9-0.4,1.1-0.6c0-0.1,0-0.2-0.1-0.3
					c-0.2-0.3-0.7-0.3-0.9-0.3c0,0-0.1,0-0.1,0l-0.1,0l0-0.1c-0.2-0.3-0.4-0.5-0.7-0.5c-0.2,0-0.3,0.1-0.3,0.1l-0.1,0.1l-0.1-0.1
					c-0.1-0.2-0.2-0.2-0.3-0.2c-0.4,0-0.9,0.4-1,0.6l-0.2,0.1l0-0.2c-0.1-0.2-0.1-0.2-0.2-0.2c-0.3,0-0.8,0.6-1.1,1l-0.1,0.2
					l-0.1-0.2c-0.1-0.2-0.2-0.2-0.2-0.2c0,0,0,0,0,0c-0.1,0.2-0.3,0.3-0.6,0.4c0,0.2-0.1,0.6-0.7,1c0.1,0.2,0.1,0.7-0.5,1.3l0,0
					c0,0-0.7,0.6-1.2,1.1c-0.1,0.1-0.2,0.2-0.3,0.3c0,0,0,0,0,0c0,0,0,0,0,0c0.2-0.1,0.4-0.2,0.7-0.3
					C246.1,24.4,247,24.2,247.1,24.2z"/>
				<path fill="#FFFFFF" d="M245.1,24.1c0.4-0.4,0.9-0.8,0.9-0.8c0.6-0.8,0.4-1.1,0.4-1.1l-0.1-0.1l0,0l0,0l0.1-0.1
					c0.2-0.1,0.4-0.2,0.5-0.3c0.2-0.2,0.2-0.4,0.2-0.5c0,0,0-0.1,0-0.1l0-0.1l0,0l0.1,0l0,0c0.3-0.1,0.5-0.3,0.6-0.5
					c0.2-0.2,0.2-0.4,0.2-0.5V20l0.1,0c0.6-0.2,1.1-0.7,1.1-0.7l0,0l0,0c0.2,0,0.5-0.5,0.7-0.9c-0.1-0.1-0.2-0.2-0.4-0.2
					c-0.3,0-0.6,0.2-0.6,0.2l-0.1,0l-0.1-0.1c-0.1-0.1-0.3-0.2-0.4-0.2c-0.3,0-0.5,0.2-0.5,0.2l-0.1,0.1l-0.1-0.1
					c-0.1-0.1-0.1-0.1-0.2-0.1c-0.3,0-0.6,0.6-0.7,0.9l-0.1,0.2l-0.1-0.2c0-0.1-0.1-0.1-0.1-0.1c-0.2,0-0.4,0.6-0.5,1.2l-0.1,0.2
					l-0.2-0.1c0,0-0.1-0.1-0.1-0.1c-0.2,1.2-0.8,3.2-1.1,4.3c0,0.1,0,0.1,0,0.2c0.1-0.1,0.2-0.2,0.3-0.3
					C244.9,24.3,245,24.2,245.1,24.1z"/>
				<path fill="#FFFFFF" d="M241.6,27.9L241.6,27.9c-0.5,0.4-0.9,0.5-1.2,0.5c-0.2,0-0.4-0.1-0.5-0.2c-0.1,0.2-0.2,0.3-0.3,0.4
					c0,0,0,0,0.1,0l0.2,0.1l-0.2,0.1c-0.4,0.3-1.1,0.8-1.1,1c0,0.1,0.1,0.1,0.2,0.2l0.2,0.1l-0.1,0.1c-0.2,0.2-0.7,0.8-0.7,1.2
					c0,0.1,0.1,0.2,0.2,0.3l0.1,0.1l-0.1,0.1c0,0-0.4,0.6,0.2,1.1l0.1,0.1l0,0.1c0,0-0.1,0.7,0.1,1.1c0.1,0.1,0.1,0.2,0.3,0.2
					c0.3-0.3,0.7-0.9,0.7-1.2v0l0,0c0,0,0.3-0.7,0.4-1.6l0-0.1l0.1,0c0,0,0.7-0.3,0.7-1.3v-0.1h0.1c0,0,0.6,0,0.7-1.1l0-0.2l0.1,0
					c0,0,0.5,0.1,1.1-0.9c0.1-0.2,0.5-1.4,1-2.3C242.9,26.6,241.7,27.9,241.6,27.9z"/>
				<path fill="#FFFFFF" d="M243.8,25.3c-1.1,0.1-2.8,0.8-2.8,0.8l0,0c-0.2,0-0.3,0-0.5,0c-0.8,0-1.1-0.3-1.3-0.5
					c-0.4,0.2-0.7,0.3-1,0.3c0,0,0,0-0.1,0c0,0.1,0,0.1,0,0.2l0.1,0.2h-0.2c-0.4,0-1.3,0.1-1.6,0.5c-0.1,0.1-0.1,0.3,0,0.4l0.1,0.1
					l-0.1,0c0,0-1,0.3-1.3,0.9c-0.1,0.2-0.1,0.4,0,0.6l0,0.1l-0.1,0.1c0,0-0.7,0.5-0.5,1.7l0,0.1l0,0.1c0,0-0.9,1.3-0.4,1.9
					c0.4-0.1,1.2-0.5,1.3-1l0,0l0,0c0,0,0.7-0.7,1.2-1.7l0-0.1l0.1,0c0,0,0,0,0.1,0c0.2,0,0.8-0.1,1.3-1.2l0.1-0.1l0.1,0.1
					c0,0,0.1,0.1,0.2,0.1c0.1,0,0.3,0,0.6-0.3c0,0,0.1-0.1,0.1-0.1c0.1-0.1,0.3-0.3,0.4-0.6l0.1-0.2L240,28l0,0.1
					c0,0,0.1,0.2,0.4,0.2c0.3,0,0.6-0.2,1.1-0.5c0.1-0.1,1.1-1.2,2-2c0.1-0.1,0.2-0.2,0.4-0.3c0.1-0.1,0.2-0.1,0.2-0.2c0,0,0,0,0,0
					C244,25.3,243.9,25.3,243.8,25.3z"/>
				<path fill="#FFFFFF" d="M234.1,26.8L234.1,26.8c0,0,0.9-0.2,1.6-0.9l0.1-0.1l0.1,0c0,0,0.2,0.1,0.6,0.1c0.4,0,0.7-0.2,1.1-0.5
					l0.1-0.1l0.1,0.1c0,0,0.1,0.1,0.2,0.1c0,0,0.1,0,0.1,0c0,0,0.1,0,0.1,0h0c0.3,0,0.6-0.1,1-0.4l0.1-0.1l0.1,0.2
					c0,0,0.2,0.4,1.1,0.4c0.1,0,0.3,0,0.5,0c0.2-0.1,1.3-0.5,2.4-0.7c0.1,0,0.2,0,0.3-0.1c0,0,0,0,0,0c-0.3-0.1-0.7-0.2-1-0.3
					c-0.6-0.2-1-0.3-1-0.3l0,0c-0.9-0.4-1.1-0.9-1.1-1.2c-0.4,0-0.6-0.1-0.8-0.2l-0.1,0c0,0-0.6-0.2-1.1-0.2c-0.2,0-0.4,0-0.4,0.1
					c-0.1,0.1-0.1,0.2-0.1,0.3l0,0.2l-0.2-0.1c0,0-0.8-0.3-1.4-0.3c-0.2,0-0.3,0-0.4,0.1c0,0.1,0,0.1,0,0.3l0.1,0.2l-0.2,0
					c0,0-0.3,0-0.6,0c-0.5,0-0.8,0.1-1,0.3c-0.1,0.1-0.1,0.2-0.1,0.4l0,0.1l-0.1,0c0,0-0.8,0.1-0.8,1.1l0,0.1l-0.1,0
					c0,0-0.7,0.4-0.8,0.9c0,0.1,0,0.3,0.1,0.4c0.1,0,0.3,0,0.6,0C233.6,27,234,27,234.1,26.8L234.1,26.8z"/>
				<path fill="#FFFFFF" d="M244.1,25c-0.1-0.1-0.2-0.2-0.3-0.3c-0.5-0.6-1.2-1.1-1.2-1.1l0,0c-0.5-0.7-0.5-1.1-0.5-1.3
					c-0.6-0.3-0.7-0.8-0.7-1c-0.3-0.1-0.5-0.3-0.6-0.4l0,0c-0.1,0-0.1,0-0.2,0.2l-0.1,0.2l-0.1-0.2c-0.3-0.4-0.8-1-1.1-1
					c0,0-0.1,0-0.1,0.2l-0.1,0.2l-0.1-0.1c0,0-0.6-0.6-1.1-0.6c-0.2,0-0.3,0.1-0.3,0.2l-0.1,0.1l-0.1-0.1c0,0-0.1-0.1-0.3-0.1
					c-0.3,0-0.5,0.2-0.7,0.5l0,0.1l-0.1,0c0,0,0,0-0.1,0c-0.2,0-0.7,0-0.9,0.3c-0.1,0.1-0.1,0.2-0.1,0.3c0.2,0.2,0.8,0.6,1.1,0.6
					c0,0,0.1,0,0.1,0l0,0l0,0c0,0,0.5,0.2,1.1,0.2c0.1,0,0.3,0,0.4,0l0.1,0l0,0.1c0,0,0.3,0.6,1.1,0.6c0.1,0,0.2,0,0.2,0l0.1,0
					l0,0.1c0,0,0,0.2,0.2,0.3c0,0,0.1,0.1,0.1,0.1c0.1,0,0.2,0.1,0.3,0.1c0,0,0.1,0,0.1,0c0.1,0,0.3,0,0.4,0l0.1,0l0.1,0l0,0l0,0.1
					c0,0,0,0,0,0c0,0.1,0,0.6,1,1c0.1,0,1,0.2,1.8,0.5C243.7,24.8,243.9,24.9,244.1,25C244.1,25,244.1,25,244.1,25
					C244.1,25,244.1,25,244.1,25z"/>
				<path fill="#FFFFFF" d="M243,20.3c0,0-0.1,0-0.1,0.1l-0.2,0.1l0-0.2c-0.1-0.6-0.4-1.2-0.5-1.2c0,0-0.1,0-0.1,0.1l-0.1,0.2
					l-0.1-0.2c-0.1-0.2-0.4-0.9-0.7-0.9c-0.1,0-0.1,0-0.2,0.1l-0.1,0.1l-0.1-0.1c0,0-0.2-0.2-0.5-0.2c-0.1,0-0.3,0.1-0.4,0.2
					l-0.1,0.1l-0.1,0c0,0-0.3-0.2-0.6-0.2c-0.2,0-0.3,0.1-0.4,0.2c0.2,0.3,0.5,0.8,0.7,0.9l0,0l0,0c0,0,0.5,0.4,1.1,0.7l0.1,0l0,0.1
					c0,0,0,0.2,0.2,0.5c0.1,0.2,0.3,0.4,0.6,0.5l0,0l0.1,0l0,0l0,0.1c0,0,0,0,0,0.1c0,0.1,0,0.3,0.2,0.5c0.1,0.1,0.2,0.2,0.5,0.3
					l0.1,0.1l0,0l0,0l-0.1,0.1c0,0-0.2,0.4,0.4,1.1c0.1,0.1,0.5,0.4,0.9,0.8c0.1,0.1,0.2,0.2,0.3,0.3c0.1,0.1,0.2,0.2,0.3,0.3
					c0,0,0-0.1,0-0.2C243.8,23.5,243.3,21.5,243,20.3z"/>
				<path fill="#FFFFFF" d="M245.5,20.3c0-0.1,0-0.1,0-0.2c0.1-0.4,0.1-0.6,0.1-0.7h-0.1l0-0.2c0.1-0.9,0-1.7-0.2-2
					c0,0-0.1-0.1-0.1-0.1c0,0-0.1,0-0.1,0l-0.1,0.1l0-0.2c-0.1-0.7-0.4-1.2-0.6-1.4c-0.2,0.2-0.4,0.6-0.6,1.4l0,0.2l-0.1-0.1
					c0,0-0.1,0-0.1,0c0,0-0.1,0-0.1,0.1c-0.2,0.2-0.3,1-0.2,2l0,0.2h-0.1c0,0.1,0,0.4,0.1,0.7c0,0.1,0,0.1,0,0.2
					c0,0.1,0,0.2,0.1,0.3c0.2,0.9,0.5,2.1,0.9,3.4c0,0,0,0.1,0,0.1c0,0.1,0.1,0.2,0.1,0.4c0,0,0,0,0,0c0,0,0,0,0,0
					c0-0.1,0.1-0.2,0.1-0.4c0,0,0-0.1,0-0.1c0.4-1.2,0.7-2.5,0.9-3.4C245.4,20.5,245.4,20.4,245.5,20.3z"/>
			</g>
			<path fill="#FFFFFF" d="M248.4,45.3H245l0.6-3.1l-0.6-0.6l0.7-2.8l-0.6-0.3l0.7-3.1l-0.7-0.5l0.6-2.6l-0.7-0.4l0.4-2.4l-0.6-0.4
				l0.1-2.5c0,0-0.2-0.8-0.8-1.3v0v0c-0.5,0.4-0.8,1.2-0.8,1.3l0,0l0.1,2.5l-0.6,0.4l0.4,2.4l-0.7,0.4l0.6,2.6l-0.7,0.5l0.8,3.1
				l-0.6,0.3l0.7,2.8l-0.6,0.6l0.7,3.1h-3.4c0,0-0.4,0.2-0.3,0.5c0.1,0.3,1.9,2.1,2,2c0.1-0.1,0.1-0.7,0.2-0.9
				c0.1-0.1,0.6,0.7,0.9,0.9c0,0,0.6-0.4,1.1-0.7c0.5,0.3,0.9,0.7,0.9,0.7c0.3-0.2,1.1-1,1.1-0.9c0.1,0.1,0.1,0.8,0.2,0.9
				c0.2,0.1,1.9-1.7,2-2C248.8,45.5,248.4,45.3,248.4,45.3z"/>
		</g>
		<g>
			<path fill="#FFFFFF" d="M234.9,46.9c-2.4-1.4-7.7-2.9-11.9-1.3c0,0,5.6-0.5,13,4.4c5.5,3.7,10.9,8.9,11.9,9.9l1.5-1.5
				C243.5,52.1,237.3,48.3,234.9,46.9z"/>
		</g>
		<path fill="#FFFFFF" d="M256.6,59.3c0,0-0.8-0.9-1.7,0c-0.8,0.8-1.3,1-2.1,1c-1,0-2.3-0.6-2.6-1.2c0,0-0.1-0.2,0.1-0.5
			c0.2,0.1,0.5,0,0.7-0.2c0.3-0.3,0.4-0.7,0.1-1c-0.2-0.3-0.7-0.3-1,0c-0.2,0.2-0.3,0.5-0.2,0.8c0,0.1-0.1,0.2-0.2,0.2
			c0,0,0-0.1,0-0.1c-0.1-0.1-0.2-0.1-0.2,0l-0.1,0.1l-1.5,1.5l-0.2,0.2c-0.1,0.1-0.1,0.2,0,0.2c0,0,0,0,0.1,0c0,0,0,0-0.1,0
			c-0.2,0-0.4,0.1-0.5,0.2c-0.3,0.3-0.4,0.7-0.1,1c0.2,0.3,0.7,0.3,1,0c0.2-0.2,0.3-0.4,0.3-0.6c0-0.1,0.1-0.3,0.2-0.3
			c0.2-0.1,0.3,0,0.5,0.2c0.5,0.6,2.5,1.9,4.7,1.9C255.3,62.8,257.9,61.1,256.6,59.3z"/>
		<g>
			<path fill="#FFFFFF" d="M253.9,46.9c2.4-1.4,7.7-2.9,11.8-1.3c0,0-5.6-0.5-13,4.4c-5.5,3.7-10.9,8.9-11.9,9.9l-1.5-1.5
				C245.3,52.1,251.5,48.3,253.9,46.9z"/>
		</g>
		<path fill="#FFFFFF" d="M232.1,59.3c0,0,0.8-0.9,1.7,0c0.8,0.8,1.3,1,2.1,1c1,0,2.3-0.6,2.6-1.2c0,0,0.1-0.2-0.1-0.5
			c-0.2,0.1-0.5,0-0.7-0.2c-0.3-0.3-0.4-0.7-0.1-1c0.2-0.3,0.7-0.3,1,0c0.2,0.2,0.3,0.5,0.2,0.8c0,0.1,0.1,0.2,0.2,0.2
			c0,0,0-0.1,0-0.1c0.1-0.1,0.2-0.1,0.2,0l0.1,0.1l1.5,1.5l0.2,0.2c0.1,0.1,0.1,0.2,0,0.2c0,0,0,0-0.1,0c0,0,0,0,0.1,0
			c0.2,0,0.4,0.1,0.5,0.2c0.3,0.3,0.4,0.7,0.1,1c-0.2,0.3-0.7,0.3-1,0c-0.2-0.2-0.3-0.4-0.3-0.6c0-0.1-0.1-0.3-0.2-0.3
			c-0.2-0.1-0.3,0-0.5,0.2c-0.5,0.6-2.5,1.9-4.6,1.9C233.4,62.8,230.9,61.1,232.1,59.3z"/>
	</g>
</g>
<g>
	<g>
		<path fill="#00524C" d="M18.6,31.2c0.3-0.6,0.5-0.9,0.7-1c1,0.6,1.6,0.9,1.8,1l0.8-1.2l-2-1.2c-0.4,0.6-0.6,0.9-0.6,1
			c-0.8-0.4-1.4-0.8-1.9-1l-0.8,1.4c0.2,0.1,0.6,0.3,1,0.5C18.1,30.9,18.4,31.1,18.6,31.2z"/>
		<path fill="#00524C" d="M35.9,38.7c-0.2,0-0.4-0.1-0.5-0.2c-1.2-0.8-1.9-1.3-2.1-1.6c-0.1-0.1-0.2-0.3-0.2-0.5
			c0-0.3,0.4-0.7,1.3-0.9c0.7-0.2,1.3-0.4,1.5-0.4c0.4,0,0.7,0.1,1,0.2c0.7,0.4,1.3,0.7,1.7,1l0.1-0.3c-0.4-1.2-1.1-2-1.9-2.4
			c-0.2-0.1-0.4-0.1-0.5-0.1c-0.3,0-0.6,0.1-1,0.2c-0.7,0.2-1.4,0.7-2.1,1.4c-0.6,0.7-1.1,1.4-1.5,2.2c0,0,0,0.1,0,0.4
			c0,0.2,0,0.3,0,0.3c0.2,0.5,0.3,0.8,0.4,0.8h-1.8h-0.8h-5H24c-0.5,0-0.9-0.1-1.1-0.4c-0.1-0.1-0.1-0.2-0.1-0.3
			c-0.4-3.1-0.7-5.5-0.8-7c-0.7,0.8-1.1,1.3-1.2,1.5c0,0.4,0,0.8,0.1,1c-0.2,0.1-0.6,0.3-1.4,0.5c-0.6,0.2-1,0.4-1.3,0.6
			c-0.9,0.7-1.4,1.8-1.6,3.2c0.3,0.2,0.6,0.4,0.9,0.5c0.2,0.1,0.4,0.2,0.8,0.2c1.2,0.3,1.9,0.5,2,0.5c0.1,0,0.2-0.1,0.3-0.2
			c0.1-0.2,0.2-0.4,0.3-0.6c0.2-0.3,0.4-0.5,0.5-0.5c0.1,0.2,0.1,0.3,0.1,0.5c0.1,0.7,0.2,1.2,0.2,1.3c0.1,0.3,0.3,0.6,0.6,0.7
			c0.2,0.1,0.3,0.1,0.4,0.1h1h0.5h5h0.8h9.6l0.8-1.7h-4.2C36.2,38.7,36,38.7,35.9,38.7z M20.6,37.3c-0.1,0-0.4,0-0.7-0.1
			c-0.3-0.1-0.7-0.2-1.2-0.4c-0.3-0.1-0.6-0.3-0.8-0.5c0.3-0.2,0.7-0.4,1.2-0.6c0.6-0.2,1-0.3,1.2-0.5c0.3-0.4,0.6-0.7,0.7-1l0.5,3
			C21.5,37.3,21.2,37.3,20.6,37.3z"/>
		<path fill="#00524C" d="M54.6,31.3c0.2-0.4,0.4-0.7,0.4-0.9l-2.3-1.2l-0.9,1.6c0.8,0.5,1.6,0.9,2.3,1.3
			C54.3,32,54.4,31.7,54.6,31.3z"/>
		<path fill="#00524C" d="M83.6,29.7c-0.6-0.3-1.1-0.6-1.4-0.7c-0.1-0.1-0.2-0.2-0.2-0.4l0.1-0.3c0-0.2,0-0.3,0-0.4h-0.3
			c-0.5,0.8-0.9,1.4-1.1,1.9c-0.1,0.1-0.1,0.2-0.1,0.4c0,0.2,0,0.3,0.1,0.3c0.2,0.2,0.3,0.3,0.4,0.4c0.3,1.8,0.5,3.2,0.6,4.1
			c0.1,0.3,0.1,0.8,0.2,1.3c0.1,0.9,0.2,1.5,0.2,1.7c0,0.3,0,0.4,0,0.5c0,0.1,0,0.1,0,0.1c-0.4,0-3,0-5.3,0h-0.8
			c0.1-0.1,0.2-0.4,0.5-0.8c0.2-0.3,0.3-0.5,0.3-0.5c0-0.7-0.5-1.4-1.6-2c-0.9-0.6-1.8-0.9-2.5-0.9c-1,0-2.5,0.6-4.4,1.7
			c-2.3,1.4-3.9,2.2-4.8,2.5h-1.1v0c-0.5,0-0.8-0.1-0.9-0.3c0.3-0.3,0.5-0.9,0.6-1.6c0.1-0.5,0.1-1,0.1-1.5
			c-0.6,0.5-1.1,1.1-1.6,1.6c0,0.3,0,0.6,0,0.9c0,0.6-0.2,0.9-0.6,0.9h-4.1v0h-0.4c-0.7-0.1-1.1-0.3-1.1-0.8l0.8-3.1V34
			c-0.3,0.2-0.7,0.5-1.1,0.9c-0.4,0.4-0.7,0.7-0.7,0.9c0,0.1-0.1,0.5-0.2,1.4c-0.1,0.7-0.2,1.2-0.4,1.5h-5.2H47
			c-1.1,0-1.6-0.3-1.7-0.8c-0.3-1.8-0.5-3.7-0.6-5.6c-0.3-3.4-0.4-5.4-0.5-5.8c-0.7,0.8-1.1,1.3-1.2,1.5c0,0,0,0.1,0,0.4l1,12.1h3
			h0.5h5.5c0.1-0.3,0.3-0.7,0.5-1c0.5,0.7,0.8,1,0.9,1h0.6h0.8h3.7c0.1,0,0.4-0.2,0.8-0.6c0.2,0.2,0.3,0.4,0.4,0.6
			c0.3,0,0.7,0,1.3,0c0.1,0,0.1,0,0.2,0c0.3,0,0.6,0,0.8,0c0,0,0,0,0,0c0,0,0.1,0,0.2,0h13.3h0.7h5c0.2-0.3,0.4-0.7,0.5-1.1
			c0.1-0.4,0.1-0.8,0.2-1.2c0.1-0.3,0.1-0.6,0.1-0.9l-0.5-5.6l0.1,0.1C82.9,31.1,83.2,30.4,83.6,29.7z M74.5,38.6
			c-0.2,0.1-0.3,0.1-0.3,0.1h-8.7c1-0.5,1.9-1,2.9-1.5c1.2-0.6,2.2-0.9,3.1-0.9c0.4,0,0.8,0.1,1.2,0.2c0.2,0.1,0.6,0.3,1.1,0.7
			c0.7,0.5,1,0.9,1,1.1C74.7,38.4,74.6,38.5,74.5,38.6z"/>
		<path fill="#00524C" d="M87.2,26.8c-0.9,1.4-1.3,2.3-1.3,2.8l1.1,10.8c0.6-1.1,0.8-2.1,0.8-3L87.2,26.8z"/>
		<path fill="#00524C" d="M95.1,35.5c-0.1-0.2-0.3-0.5-0.6-0.9c-0.4-0.5-0.6-0.7-0.9-0.7c-0.4,0-1,0.5-1.6,1.5c-0.7,1-1,1.8-1,2.3
			c0,0.5,0.1,1,0.3,1.4c0.3,0.5,0.8,0.8,1.3,0.8c0.8,0,1.5-0.5,2-1.6l0.1,0.1c0,0.1,0,0.2,0,0.4c0,0.2,0,0.3,0,0.3
			c0,1.3-1.2,2.7-3.5,4.3c-0.7,0.5-1.4,0.7-1.9,0.7c0,0-0.4-0.1-1.1-0.2c-0.7-0.1-1-0.2-1.1-0.2c-0.1,0-0.2,0.1-0.3,0.3
			c0.2,0.2,0.9,0.4,1.9,0.7c0.4,0.1,1,0.2,1.5,0.4c0.3,0,0.6,0,0.8,0c0.9,0,1.7-0.5,2.5-1.5c0.6-0.8,1.1-1.7,1.5-2.8
			c0.2-0.9,0.3-1.6,0.3-2.1c0-0.3,0.1-0.5,0.1-0.6c0-0.4-0.1-0.9-0.2-1.6C95.3,36.1,95.2,35.8,95.1,35.5z M93.3,38.1
			c-0.3,0-0.6-0.1-0.9-0.2c-0.4-0.2-0.6-0.4-0.6-0.7c0-0.2,0.2-0.5,0.5-0.8c0.3-0.3,0.6-0.5,0.8-0.5c0.4,0,0.7,0.3,0.9,0.8
			c0.2,0.4,0.3,0.7,0.3,1C94.1,38,93.7,38.1,93.3,38.1z"/>
		<path fill="#00524C" d="M104.6,31.7c0.8,0.5,1.5,0.9,1.9,1.1c0.2-0.5,0.5-0.9,0.8-1.4c-0.2-0.1-0.5-0.3-1-0.6
			c-0.4-0.3-0.8-0.4-1-0.6c-0.4,0.5-0.6,0.9-0.6,1c-0.8-0.5-1.4-0.9-1.8-1.1c-0.3,0.5-0.6,0.9-0.8,1.4l2,1.2L104.6,31.7z"/>
		<path fill="#00524C" d="M107.6,37.8c0,0,0-0.2,0.2-0.5c0.1-0.3,0.2-0.5,0.2-0.6c0-0.6-0.2-1.1-0.7-1.5c-0.6-0.5-1.3-1-1.9-1.5
			c-0.7,0.9-1.4,1.8-2,2.7c-0.9,1.2-1.3,2.1-1.3,2.8c0,0.9,0.6,1.4,1.8,1.4c0.7,0,1.5-0.2,2.2-0.7C106.9,39.2,107.4,38.6,107.6,37.8
			z M104.4,38.6c-0.7,0-1-0.3-1-0.8c0-0.3,0.2-0.7,0.5-1.2c0.3-0.3,0.6-0.7,0.9-1c0.3,0.1,0.7,0.4,1.1,0.9c0.4,0.4,0.6,0.8,0.6,1
			c0,0.3-0.3,0.6-0.9,0.8C105.2,38.6,104.8,38.6,104.4,38.6z"/>
		<path fill="#00524C" d="M113.5,35.4c-0.4-0.7-1-1.2-1.6-1.6c-0.2,0.9-0.4,1.5-0.5,2c0.8,0.6,1.3,1,1.3,1c0.5,0.5,0.8,0.9,0.8,1.2
			c0,0,0,0.1,0,0.3c0,0.2-0.1,0.5-0.3,0.9c-0.2,0.4-0.6,1-1.2,1.6c-0.6,0.7-1.2,1.1-1.6,1.5c-0.8,0.5-1.4,0.8-1.9,0.8
			c-0.1,0-0.3,0-0.5-0.1c-0.3-0.1-0.7-0.2-1.2-0.4c-0.5-0.2-0.8-0.3-0.9-0.3c-0.1,0-0.1,0-0.2,0.1v0.3c0.4,0.4,1,0.7,1.7,1
			c0.1,0,0.7,0.2,1.5,0.5c0.4,0.1,0.8,0.2,1,0.2c0.3,0,0.6-0.1,0.9-0.2c1.2-0.6,2.2-1.8,2.9-3.7c0.2-0.5,0.3-1.2,0.3-1.9
			c0-0.3,0-0.7-0.1-1.2C114.2,36.7,113.9,36.1,113.5,35.4z"/>
		<path fill="#00524C" d="M132.3,42.6c-0.2,0.3-0.3,0.5-0.4,0.7l1.9,1.2c0.3-0.6,0.6-1.1,0.8-1.4l-2-1.1
			C132.6,42.1,132.5,42.3,132.3,42.6z"/>
		<path fill="#00524C" d="M142.6,32.4l1.8,1.1c0.3-0.4,0.6-0.9,0.8-1.4c-0.2-0.1-0.6-0.3-1-0.6c-0.5-0.3-0.8-0.4-1-0.5
			c-0.3,0.5-0.5,0.8-0.6,0.9c-0.8-0.5-1.5-0.8-1.9-1c-0.2,0.3-0.5,0.8-0.8,1.4l1.9,1.1C142.1,33,142.4,32.7,142.6,32.4z"/>
		<path fill="#00524C" d="M153,29.7c-0.6-0.3-1.1-0.6-1.4-0.7c-0.1-0.1-0.2-0.2-0.2-0.4l0.1-0.3c0-0.2,0-0.3,0-0.4h-0.3
			c-0.5,0.8-0.9,1.4-1.1,1.9c-0.1,0.1-0.1,0.2-0.1,0.4c0,0.2,0,0.3,0.1,0.3c0.2,0.2,0.3,0.3,0.4,0.4c0.3,1.8,0.5,3.2,0.6,4.1
			c0.1,0.3,0.1,0.8,0.2,1.3c0.1,0.9,0.2,1.5,0.2,1.7c0,0.3,0,0.4,0,0.5c0,0.1,0,0.1,0,0.1c-0.3,0-3.5,0-5.9,0
			c-0.3,0-0.4-0.1-0.5-0.2l0.5-3.1v-0.8c-0.7,0.7-1.2,1.3-1.5,1.7c-0.1,0.1-0.1,0.2-0.1,0.4v2H140h-1.7h-3.8c-0.1,0-0.3-0.1-0.4-0.3
			c-0.1-0.2-0.2-0.4-0.2-0.5c0.6-0.3,1.2-0.4,1.8-0.4h1.5c0.3-0.8,0.6-1.4,0.7-1.8c-0.2,0-0.6,0-1,0c-0.9,0-2.1-0.2-3.6-0.7
			c-1.5-0.5-2.6-0.7-3.1-0.7c0,0-0.1,0-0.3,0c-0.1,0-0.2,0-0.3,0c-0.3,0-0.7,0.3-1.2,0.9c-0.5,0.6-0.8,1-0.8,1.4v0.4
			c0.3-0.2,0.6-0.4,0.7-0.5c0.4-0.3,0.8-0.4,1.2-0.4c0.4,0,1.6,0.3,3.6,0.8c-0.5,0.4-1.1,0.8-1.9,1.2c-0.8,0.4-1.5,0.6-2.1,0.6h-7.9
			h-0.4c-1.1,0-1.7-0.3-1.7-0.8c-0.3-1.8-0.5-3.7-0.6-5.6c-0.3-3.4-0.4-5.4-0.5-5.8c-0.7,0.8-1.1,1.3-1.2,1.5c0,0,0,0.1,0,0.4
			l1,12.1h3h0.5h8.5c0.3,0,0.6-0.2,1-0.4c0.3-0.2,0.6-0.4,0.9-0.6c0.6-0.4,1.1-0.7,1.5-1c0.1,0.6,0.2,1,0.2,1.3
			c0,0.1,0.1,0.3,0.3,0.5c0.1,0.2,0.2,0.3,0.3,0.3h4.4h1.7h3c0.4-0.5,0.6-0.9,0.7-1c0.2,0.3,0.3,0.5,0.3,0.6
			c0.2,0.2,0.3,0.3,0.5,0.3h0.8h0.5h5.8c0.2-0.3,0.4-0.7,0.5-1.1c0.1-0.4,0.1-0.8,0.2-1.2c0.1-0.3,0.1-0.6,0.1-0.9l-0.5-5.6l0.1,0.1
			C152.4,31.1,152.7,30.4,153,29.7z"/>
		<path fill="#00524C" d="M155.3,29.6l1.1,10.8c0.6-1.1,0.8-2.1,0.8-3l-0.6-10.6C155.8,28.2,155.3,29.1,155.3,29.6z"/>
		<path fill="#00524C" d="M166.9,33.6c-0.7,0.9-1.4,1.8-2,2.7c-0.9,1.2-1.3,2.1-1.3,2.8c0,0.9,0.6,1.4,1.8,1.4
			c0.7,0,1.5-0.2,2.2-0.7c0.9-0.5,1.4-1.2,1.6-2c0,0,0.1-0.2,0.2-0.5c0.1-0.3,0.2-0.5,0.2-0.6c0-0.6-0.2-1.1-0.7-1.5
			C168.1,34.6,167.5,34.1,166.9,33.6z M167.3,38.4c-0.5,0.2-0.9,0.2-1.3,0.2c-0.7,0-1-0.3-1-0.8c0-0.3,0.2-0.7,0.5-1.2
			c0.3-0.3,0.6-0.7,0.9-1c0.3,0.1,0.7,0.4,1.1,0.9c0.4,0.4,0.7,0.8,0.7,1C168.1,37.9,167.8,38.2,167.3,38.4z"/>
		<path fill="#00524C" d="M166.2,31.7c0.9,0.5,1.5,0.9,1.9,1.1c0.3-0.5,0.5-0.9,0.8-1.4c-0.2-0.1-0.5-0.3-1-0.6
			c-0.4-0.3-0.8-0.4-1-0.6c-0.4,0.5-0.6,0.9-0.6,1c-0.8-0.5-1.4-0.9-1.8-1.1c-0.3,0.5-0.6,0.9-0.8,1.4l2,1.2L166.2,31.7z"/>
		<path fill="#00524C" d="M177.4,35.4c-0.4-0.7-1-1.2-1.6-1.6c-0.2,0.9-0.4,1.5-0.5,2c0.8,0.6,1.3,1,1.3,1c0.5,0.5,0.8,0.9,0.9,1.2
			c0,0,0,0.1,0,0.3c0,0.2-0.1,0.5-0.3,0.9c-0.2,0.4-0.6,1-1.2,1.6c-0.6,0.7-1.2,1.1-1.6,1.5c-0.8,0.5-1.4,0.8-1.9,0.8
			c-0.1,0-0.3,0-0.5-0.1c-0.3-0.1-0.7-0.2-1.2-0.4c-0.5-0.2-0.8-0.3-0.9-0.3c-0.1,0-0.1,0-0.2,0.1v0.3c0.4,0.4,1,0.7,1.7,1
			c0.1,0,0.7,0.2,1.5,0.5c0.4,0.1,0.8,0.2,1,0.2c0.3,0,0.6-0.1,0.9-0.2c1.2-0.6,2.2-1.8,2.9-3.7c0.2-0.5,0.3-1.2,0.3-1.9
			c0-0.3,0-0.7-0.1-1.2C178,36.7,177.8,36.1,177.4,35.4z"/>
		<path fill="#00524C" d="M180.7,29.6l1.1,10.8c0.6-1.1,0.9-2.1,0.9-3L182,26.8C181.1,28.2,180.7,29.1,180.7,29.6z"/>
		<path fill="#00524C" d="M188.5,32l0.8-1.4l-2-1.1c-0.2,0.4-0.5,0.9-0.8,1.4l1.8,1.1H188.5z"/>
		<path fill="#00524C" d="M188.9,33.6c-0.2,0.9-0.3,1.6-0.4,2.1c1.5,1.1,2.2,2,2.2,2.5c0,0.8-0.6,1.9-1.9,3
			c-1.2,1.2-2.3,1.8-3.1,1.8c-0.4,0-1.2-0.3-2.4-0.8H183v0.4c0.2,0.3,0.8,0.6,1.8,1c1,0.4,1.8,0.6,2.4,0.6c1,0,2-0.7,2.9-2
			c0.9-1.3,1.3-2.5,1.3-3.7C191.4,36.3,190.5,34.8,188.9,33.6z"/>
		<path fill="#00524C" d="M198.9,36.5c-0.1-0.4-0.2-0.8-0.3-1c-0.1-0.2-0.3-0.5-0.6-0.9c-0.3-0.5-0.6-0.7-0.9-0.7
			c-0.4,0-1,0.5-1.6,1.5c-0.7,1-1,1.8-1,2.3c0,0.5,0.1,1,0.4,1.4c0.3,0.5,0.8,0.8,1.3,0.8c0.8,0,1.5-0.5,2-1.6l0.1,0.1
			c0,0.1,0,0.2,0,0.4c0,0.2,0,0.3,0,0.3c0,1.3-1.2,2.7-3.5,4.3c-0.7,0.5-1.4,0.7-1.9,0.7c0,0-0.4-0.1-1.1-0.2
			c-0.7-0.1-1-0.2-1.1-0.2c-0.1,0-0.2,0.1-0.3,0.3c0.2,0.2,0.9,0.4,1.9,0.7c0.4,0.1,1,0.2,1.5,0.4c0.3,0,0.6,0,0.8,0
			c0.9,0,1.7-0.5,2.5-1.5c0.7-0.8,1.1-1.7,1.5-2.8c0.2-0.9,0.3-1.6,0.3-2.1c0-0.3,0.1-0.5,0.1-0.6C199.1,37.7,199,37.2,198.9,36.5z
			 M196.7,38.1c-0.3,0-0.6-0.1-0.9-0.2c-0.4-0.2-0.6-0.4-0.6-0.7c0-0.2,0.2-0.5,0.5-0.8c0.3-0.3,0.6-0.5,0.8-0.5
			c0.4,0,0.7,0.3,0.9,0.8c0.2,0.4,0.3,0.7,0.3,1C197.5,38,197.1,38.1,196.7,38.1z"/>
	</g>
	<g>
		<path fill="#00524C" d="M17.8,55.3h-1.1v-8.2h1.2l2.4,5.5c0.2-0.5,0.4-0.9,0.6-1.4c0.2-0.5,0.4-0.9,0.5-1.4
			c0.2-0.5,0.4-0.9,0.5-1.4c0.2-0.5,0.4-0.9,0.6-1.4h1.2v8.2h-1.2v-4.9l0-0.8c-0.1,0.1-0.1,0.3-0.1,0.4c-0.1,0.1-0.1,0.3-0.1,0.4
			l-1.5,3.6h-1.2L18,50.5l-0.3-0.7l0,0.6V55.3z"/>
		<path fill="#00524C" d="M25.1,48.4v-1.2h1.2v1.2H25.1z M25.1,49.4h1.2v5.9h-1.2V49.4z"/>
		<path fill="#00524C" d="M28.9,55.3h-1.2v-5.9h1.2v0.7c0.1-0.1,0.1-0.2,0.2-0.2c0.1-0.1,0.1-0.1,0.2-0.2c0.1-0.1,0.2-0.1,0.3-0.2
			c0.1-0.1,0.2-0.1,0.3-0.2c0.2-0.1,0.5-0.1,0.7-0.1c0.4,0,0.7,0.1,1,0.2c0.3,0.2,0.5,0.4,0.7,0.7v0c0.2,0.3,0.2,0.8,0.2,1.4v3.7
			h-1.2V52c0-0.5,0-0.8-0.1-1c-0.1-0.2-0.2-0.3-0.3-0.4c-0.1-0.1-0.2-0.1-0.3-0.1c-0.1,0-0.2,0-0.3,0c-0.1,0-0.2,0-0.4,0.1
			c-0.1,0-0.2,0.1-0.4,0.2c-0.1,0.1-0.2,0.2-0.3,0.3c-0.1,0.1-0.2,0.2-0.3,0.4c-0.2,0.3-0.2,0.7-0.2,1.2V55.3z"/>
		<path fill="#00524C" d="M34,48.4v-1.2h1.2v1.2H34z M34,49.4h1.2v5.9H34V49.4z"/>
		<path fill="#00524C" d="M36.3,53.6h1.2v0.1c0,0.2,0.1,0.4,0.2,0.5h0c0.2,0.1,0.5,0.2,0.9,0.2c0.4,0,0.7-0.1,0.9-0.3
			c0.2-0.2,0.3-0.4,0.3-0.6c0-0.3-0.2-0.5-0.6-0.6l-0.5-0.1l-0.3-0.1l-0.7-0.2c-0.8-0.3-1.2-0.8-1.2-1.5c0-0.2,0.1-0.5,0.1-0.7
			c0.1-0.2,0.2-0.4,0.4-0.6c0.2-0.2,0.4-0.3,0.7-0.4c0.3-0.1,0.6-0.1,1-0.1c0.7,0,1.3,0.2,1.6,0.5c0.3,0.3,0.5,0.7,0.5,1.1v0.1h-1.2
			v-0.1c0-0.1,0-0.1-0.1-0.2c0-0.1-0.1-0.1-0.2-0.2c-0.1,0-0.2-0.1-0.3-0.1c-0.1,0-0.2,0-0.4,0c-0.3,0-0.6,0.1-0.8,0.2
			c-0.2,0.1-0.3,0.3-0.3,0.5c0,0.1,0.1,0.3,0.2,0.4c0.1,0.1,0.3,0.2,0.6,0.3l0.4,0.1l0.3,0.1h0c0.2,0.1,0.4,0.1,0.6,0.2
			c0.2,0,0.3,0.1,0.3,0.1c0.1,0,0.1,0.1,0.2,0.1c0.1,0,0.1,0.1,0.2,0.1c0.2,0.1,0.3,0.3,0.4,0.5c0.1,0.2,0.1,0.4,0.1,0.7
			c0,0.6-0.2,1.1-0.6,1.5c-0.4,0.4-1,0.6-1.8,0.6c-0.5,0-0.9-0.1-1.2-0.2c-0.3-0.1-0.6-0.3-0.8-0.6c-0.2-0.3-0.3-0.6-0.3-0.9V53.6z"
			/>
		<path fill="#00524C" d="M45.9,55.3c-0.3,0.1-0.5,0.1-0.7,0.2c-0.2,0-0.4,0-0.5,0c-0.4,0-0.7-0.1-1-0.2c-0.3-0.1-0.5-0.4-0.7-0.7
			c-0.2-0.3-0.2-0.7-0.2-1.4v-2.8h-1v-1h1v-1.3h1.2v1.3h1.7v1h-1.7V53c0,0.2,0,0.4,0,0.6c0,0.2,0,0.3,0.1,0.4
			c0.1,0.2,0.2,0.3,0.3,0.4c0.1,0.1,0.3,0.1,0.5,0.1c0.2,0,0.5-0.1,1-0.2V55.3z"/>
		<path fill="#00524C" d="M48.1,55.3H47v-5.9h1.2v0.7c0.1-0.2,0.3-0.3,0.4-0.5c0.2-0.1,0.3-0.2,0.5-0.3c0.2-0.1,0.5-0.1,0.7-0.1
			c0.2,0,0.4,0,0.6,0.1v1.3c-0.2-0.1-0.3-0.1-0.5-0.2c-0.1,0-0.3-0.1-0.4-0.1c-0.3,0-0.6,0.1-1,0.4h0c-0.3,0.3-0.5,0.8-0.5,1.6V55.3
			z"/>
		<path fill="#00524C" d="M53,55l-2.5-5.6h1.3l1.8,4c0.3-0.7,0.6-1.3,0.9-2c0.3-0.7,0.6-1.3,0.8-2h1.2l-2.5,5.9
			c-0.1,0.2-0.2,0.3-0.2,0.5c-0.1,0.2-0.2,0.3-0.2,0.4c-0.1,0.1-0.1,0.3-0.2,0.4c-0.1,0.1-0.1,0.2-0.2,0.2c-0.1,0.1-0.2,0.2-0.4,0.3
			c-0.1,0.1-0.2,0.2-0.4,0.2c-0.1,0-0.3,0.1-0.4,0.1c-0.2,0-0.4,0-0.6,0h-0.8v-1h0.7c0.2,0,0.5,0,0.6-0.1c0.2-0.1,0.3-0.2,0.4-0.3
			c0.1-0.1,0.3-0.5,0.5-1L53,55z"/>
		<path fill="#00524C" d="M63.5,55.5c-0.8,0-1.4-0.3-2-0.8c-0.6-0.5-0.8-1.3-0.8-2.3c0-1,0.3-1.8,0.8-2.3c0.5-0.5,1.2-0.8,2-0.8
			c0.8,0,1.4,0.3,2,0.8c0.6,0.5,0.8,1.3,0.8,2.3c0,1-0.3,1.8-0.8,2.3C65,55.2,64.3,55.5,63.5,55.5z M63.5,54.4
			c0.5,0,0.8-0.2,1.1-0.6c0.3-0.4,0.4-0.9,0.4-1.5c0-0.6-0.1-1.2-0.4-1.5c-0.3-0.4-0.7-0.6-1.1-0.6c-0.2,0-0.4,0-0.6,0.1
			c-0.2,0.1-0.4,0.2-0.5,0.4c-0.1,0.2-0.2,0.4-0.3,0.7C62,51.8,62,52,62,52.4c0,0.3,0,0.6,0.1,0.8c0.1,0.3,0.2,0.5,0.3,0.7
			c0.1,0.2,0.3,0.3,0.5,0.4C63.1,54.4,63.3,54.4,63.5,54.4z"/>
		<path fill="#00524C" d="M69.3,55.3h-1.2v-4.9h-0.8v-1h0.8v-0.1c0-0.9,0.2-1.5,0.6-1.8c0.4-0.4,0.9-0.5,1.4-0.5c0.1,0,0.2,0,0.4,0
			c0.2,0,0.3,0,0.5,0.1v1c-0.2,0-0.3,0-0.5-0.1c-0.1,0-0.2,0-0.3,0c-0.3,0-0.5,0.1-0.7,0.2v0c-0.2,0.1-0.3,0.5-0.3,1v0.3h1.7v1h-1.7
			V55.3z"/>
		<path fill="#00524C" d="M80.2,53.3h1.2v0.2c0,0.2,0,0.3-0.1,0.5c-0.1,0.2-0.1,0.3-0.3,0.5c-0.1,0.2-0.3,0.3-0.4,0.4
			c-0.2,0.1-0.3,0.2-0.5,0.3c-0.2,0.1-0.4,0.1-0.6,0.2c-0.2,0-0.5,0.1-0.7,0.1c-1,0-1.9-0.4-2.6-1.1c-0.7-0.7-1-1.8-1-3.3
			c0-0.7,0.1-1.3,0.3-1.9c0.2-0.5,0.4-1,0.7-1.4c0.3-0.4,0.7-0.6,1.2-0.8c0.4-0.2,0.9-0.3,1.4-0.3c0.5,0,1,0.1,1.4,0.2
			c0.4,0.2,0.7,0.4,0.9,0.8c0.1,0.2,0.2,0.3,0.3,0.5c0.1,0.2,0.1,0.3,0.1,0.5v0.2h-1.2v-0.2c0-0.1,0-0.2,0-0.2
			c0-0.1-0.1-0.2-0.1-0.2c-0.1-0.1-0.1-0.1-0.2-0.2c-0.1-0.1-0.2-0.1-0.3-0.2c-0.1,0-0.2-0.1-0.4-0.1c-0.1,0-0.3,0-0.4,0
			c-0.8,0-1.3,0.3-1.7,0.9c-0.4,0.6-0.6,1.4-0.6,2.4c0,1,0.2,1.8,0.6,2.4c0.4,0.6,0.9,0.9,1.7,0.9c0.5,0,0.9-0.1,1.1-0.3
			c0.2-0.2,0.3-0.4,0.3-0.7V53.3z"/>
		<path fill="#00524C" d="M85,55.5c-0.8,0-1.4-0.3-2-0.8c-0.6-0.5-0.8-1.3-0.8-2.3c0-1,0.3-1.8,0.8-2.3c0.5-0.5,1.2-0.8,2-0.8
			c0.8,0,1.4,0.3,2,0.8c0.5,0.5,0.8,1.3,0.8,2.3c0,1-0.3,1.8-0.8,2.3C86.5,55.2,85.8,55.5,85,55.5z M85,54.4c0.5,0,0.8-0.2,1.1-0.6
			c0.3-0.4,0.4-0.9,0.4-1.5c0-0.6-0.2-1.2-0.4-1.5c-0.3-0.4-0.7-0.6-1.1-0.6c-0.2,0-0.4,0-0.6,0.1c-0.2,0.1-0.4,0.2-0.5,0.4
			c-0.1,0.2-0.2,0.4-0.3,0.7c-0.1,0.3-0.1,0.5-0.1,0.9c0,0.3,0,0.6,0.1,0.8c0.1,0.3,0.2,0.5,0.3,0.7c0.2,0.2,0.3,0.3,0.5,0.4
			C84.6,54.4,84.8,54.4,85,54.4z"/>
		<path fill="#00524C" d="M90.3,55.3h-1.2v-5.9h1.2v0.7c0.1-0.1,0.1-0.2,0.2-0.2c0.1-0.1,0.1-0.1,0.2-0.2c0.1-0.1,0.2-0.1,0.3-0.2
			c0.1-0.1,0.2-0.1,0.3-0.2c0.2-0.1,0.5-0.1,0.7-0.1c0.2,0,0.5,0,0.7,0.1c0.2,0.1,0.4,0.2,0.6,0.4l0,0c0.1,0.1,0.3,0.3,0.4,0.6
			c0.2-0.2,0.3-0.4,0.5-0.6c0.1-0.1,0.2-0.2,0.3-0.2c0.1-0.1,0.2-0.1,0.3-0.2c0.2-0.1,0.4-0.1,0.7-0.1c0.4,0,0.7,0.1,0.9,0.2
			c0.3,0.2,0.5,0.4,0.6,0.7l0,0c0.2,0.3,0.2,0.8,0.2,1.5v3.7h-1.2V52c0-0.7,0-1.1-0.1-1.2c-0.1-0.2-0.2-0.3-0.3-0.4
			c-0.1-0.1-0.3-0.1-0.4-0.1c-0.2,0-0.5,0.1-0.7,0.2c-0.2,0.2-0.4,0.4-0.5,0.7c-0.1,0.3-0.2,0.7-0.2,1.2v2.9h-1.2V52
			c0-0.3,0-0.6,0-0.8c0-0.2,0-0.3-0.1-0.4c-0.1-0.2-0.2-0.3-0.3-0.3c-0.1,0-0.1-0.1-0.2-0.1c-0.1,0-0.2,0-0.2,0
			c-0.2,0-0.5,0.1-0.7,0.2c-0.2,0.2-0.4,0.4-0.6,0.7c-0.1,0.3-0.2,0.7-0.2,1.2V55.3z"/>
		<path fill="#00524C" d="M100,55.3h-1.2v-5.9h1.2v0.7c0.1-0.1,0.1-0.2,0.2-0.2c0.1-0.1,0.1-0.1,0.2-0.2c0.1-0.1,0.2-0.1,0.3-0.2
			c0.1-0.1,0.2-0.1,0.3-0.2c0.2-0.1,0.5-0.1,0.7-0.1c0.2,0,0.5,0,0.7,0.1c0.2,0.1,0.4,0.2,0.6,0.4l0,0c0.1,0.1,0.3,0.3,0.4,0.6
			c0.2-0.2,0.3-0.4,0.5-0.6c0.1-0.1,0.2-0.2,0.3-0.2c0.1-0.1,0.2-0.1,0.3-0.2c0.2-0.1,0.4-0.1,0.7-0.1c0.4,0,0.7,0.1,0.9,0.2
			c0.3,0.2,0.5,0.4,0.6,0.7l0,0c0.2,0.3,0.2,0.8,0.2,1.5v3.7h-1.2V52c0-0.7,0-1.1-0.1-1.2c-0.1-0.2-0.2-0.3-0.3-0.4
			c-0.1-0.1-0.3-0.1-0.4-0.1c-0.3,0-0.5,0.1-0.7,0.2c-0.2,0.2-0.4,0.4-0.5,0.7c-0.1,0.3-0.2,0.7-0.2,1.2v2.9h-1.2V52
			c0-0.3,0-0.6,0-0.8c0-0.2,0-0.3-0.1-0.4c-0.1-0.2-0.2-0.3-0.3-0.3c-0.1,0-0.2-0.1-0.2-0.1c-0.1,0-0.2,0-0.2,0
			c-0.2,0-0.5,0.1-0.7,0.2c-0.2,0.2-0.4,0.4-0.5,0.7c-0.1,0.3-0.2,0.7-0.2,1.2V55.3z"/>
		<path fill="#00524C" d="M112.2,53.6h1.2v0.2c0,0.3-0.1,0.6-0.3,0.8c-0.2,0.3-0.5,0.5-0.8,0.6c-0.4,0.1-0.7,0.2-1.2,0.2
			c-0.9,0-1.6-0.3-2.1-0.9c-0.5-0.6-0.7-1.3-0.7-2.2c0-0.9,0.3-1.7,0.8-2.3c0.5-0.6,1.2-0.9,2-0.9c0.2,0,0.5,0,0.7,0.1
			c0.2,0,0.4,0.1,0.6,0.2c0.2,0.1,0.3,0.2,0.5,0.4c0.2,0.2,0.3,0.3,0.4,0.5c0.2,0.4,0.3,1,0.3,1.7v0.4h-4c0,0.3,0.1,0.5,0.1,0.7
			c0.1,0.2,0.2,0.4,0.3,0.6c0.2,0.2,0.3,0.3,0.6,0.4c0.2,0.1,0.4,0.1,0.7,0.1c0.2,0,0.4,0,0.5-0.1c0.1,0,0.2-0.1,0.3-0.2
			c0.1-0.1,0.1-0.1,0.2-0.2c0-0.1,0.1-0.2,0.1-0.2V53.6z M112.3,51.6c0-0.2-0.1-0.5-0.2-0.7c-0.1-0.2-0.3-0.4-0.5-0.5
			c-0.1,0-0.2-0.1-0.3-0.1c-0.1,0-0.2,0-0.4,0c-0.3,0-0.6,0.1-0.9,0.4c-0.1,0.1-0.2,0.3-0.3,0.4c-0.1,0.2-0.2,0.3-0.2,0.6H112.3z
			 M112.3,51.6L112.3,51.6l0.1,0l-0.1,0.1V51.6z"/>
		<path fill="#00524C" d="M115.9,55.3h-1.2v-5.9h1.2v0.7c0.1-0.2,0.3-0.3,0.4-0.5c0.2-0.1,0.3-0.2,0.5-0.3c0.2-0.1,0.5-0.1,0.7-0.1
			c0.2,0,0.4,0,0.6,0.1v1.3c-0.2-0.1-0.3-0.1-0.5-0.2c-0.1,0-0.3-0.1-0.4-0.1c-0.3,0-0.6,0.1-1,0.4h0c-0.3,0.3-0.5,0.8-0.5,1.6V55.3
			z"/>
		<path fill="#00524C" d="M122.5,53.6h1.2v0.2c0,0.1,0,0.3-0.1,0.4c-0.1,0.1-0.1,0.3-0.2,0.4c-0.1,0.1-0.2,0.2-0.4,0.4
			c-0.1,0.1-0.3,0.2-0.4,0.3c-0.3,0.1-0.7,0.2-1.2,0.2c-0.9,0-1.6-0.3-2-0.8c-0.5-0.6-0.7-1.3-0.7-2.3c0-1,0.2-1.7,0.7-2.3
			c0.5-0.6,1.2-0.8,2-0.8c0.5,0,0.8,0.1,1.2,0.2c0.3,0.2,0.6,0.3,0.8,0.6c0.1,0.1,0.2,0.3,0.2,0.4c0.1,0.1,0.1,0.3,0.1,0.5v0.2h-1.2
			v-0.2c0-0.2-0.1-0.3-0.2-0.4c-0.2-0.1-0.4-0.2-0.8-0.2c-0.4,0-0.8,0.2-1.1,0.5c-0.3,0.3-0.4,0.9-0.4,1.6c0,0.7,0.1,1.3,0.4,1.6
			c0.3,0.3,0.7,0.5,1.1,0.5c0.2,0,0.3,0,0.5-0.1c0.1,0,0.2-0.1,0.3-0.2c0.2-0.1,0.2-0.3,0.2-0.5V53.6z"/>
		<path fill="#00524C" d="M128.6,53.6h1.2v0.2c0,0.3-0.1,0.6-0.3,0.8c-0.2,0.3-0.5,0.5-0.8,0.6c-0.3,0.1-0.7,0.2-1.2,0.2
			c-0.9,0-1.6-0.3-2.1-0.9c-0.5-0.6-0.7-1.3-0.7-2.2c0-0.9,0.3-1.7,0.8-2.3c0.5-0.6,1.2-0.9,2-0.9c0.2,0,0.4,0,0.7,0.1
			c0.2,0,0.4,0.1,0.6,0.2c0.2,0.1,0.3,0.2,0.5,0.4c0.2,0.2,0.3,0.3,0.4,0.5c0.2,0.4,0.3,1,0.3,1.7v0.4h-4c0,0.3,0.1,0.5,0.1,0.7
			c0.1,0.2,0.2,0.4,0.3,0.6c0.1,0.2,0.3,0.3,0.5,0.4c0.2,0.1,0.5,0.1,0.7,0.1c0.2,0,0.4,0,0.5-0.1c0.1,0,0.3-0.1,0.3-0.2
			c0.1-0.1,0.1-0.1,0.2-0.2c0-0.1,0.1-0.2,0.1-0.2V53.6z M128.7,51.6c0-0.2-0.1-0.5-0.2-0.7c-0.1-0.2-0.3-0.4-0.5-0.5
			c-0.1,0-0.2-0.1-0.3-0.1c-0.1,0-0.2,0-0.4,0c-0.3,0-0.6,0.1-0.9,0.4c-0.1,0.1-0.2,0.3-0.3,0.4c-0.1,0.2-0.2,0.3-0.2,0.6H128.7z
			 M128.7,51.6L128.7,51.6l0.1,0l-0.1,0.1V51.6z"/>
		<path fill="#00524C" d="M138.3,55.3c-0.1-0.3-0.1-0.5-0.2-0.6c-0.2,0.2-0.3,0.3-0.5,0.4c-0.2,0.1-0.3,0.2-0.4,0.2
			c-0.3,0.1-0.6,0.2-0.9,0.2c-0.5,0-0.9-0.1-1.2-0.4c-0.4-0.3-0.5-0.7-0.5-1.2c0-0.6,0.2-1.1,0.7-1.4c0.2-0.2,0.6-0.3,1-0.4
			c0.4-0.1,0.9-0.2,1.5-0.4l0.4-0.1V51c0-0.3-0.1-0.5-0.3-0.6c-0.2-0.1-0.5-0.2-0.8-0.2c-0.4,0-0.6,0.1-0.8,0.2
			c-0.2,0.1-0.3,0.3-0.3,0.5v0.2h-1.3v-0.2c0-0.3,0.1-0.6,0.3-0.9h0c0.2-0.3,0.5-0.5,0.9-0.6c0.4-0.1,0.8-0.2,1.2-0.2
			c0.4,0,0.8,0.1,1.2,0.2h0c0.4,0.1,0.6,0.3,0.8,0.6l0,0c0.2,0.2,0.3,0.7,0.3,1.3v2.2c0,0.1,0,0.2,0,0.4c0,0.1,0,0.3,0,0.4
			c0,0.1,0,0.3,0.1,0.5c0,0.2,0.1,0.4,0.2,0.6H138.3z M138.1,52.5C138.1,52.5,138.1,52.5,138.1,52.5c-0.1,0-0.1,0-0.1,0
			c-0.5,0.1-0.8,0.2-1.1,0.3c-0.3,0.1-0.5,0.2-0.6,0.3c-0.2,0.2-0.4,0.4-0.4,0.7c0,0.1,0,0.2,0.1,0.4c0.1,0.1,0.2,0.2,0.3,0.3h0
			c0.1,0.1,0.3,0.1,0.4,0.1c0.1,0,0.2,0,0.4-0.1c0.1,0,0.2-0.1,0.4-0.2c0.1-0.1,0.2-0.2,0.3-0.3c0.1-0.1,0.2-0.2,0.2-0.3
			c0.1-0.1,0.1-0.2,0.1-0.4c0-0.1,0-0.3,0-0.4V52.5z"/>
		<path fill="#00524C" d="M142,55.3h-1.2v-5.9h1.2v0.7c0.1-0.1,0.1-0.2,0.2-0.2c0.1-0.1,0.1-0.1,0.2-0.2c0.1-0.1,0.2-0.1,0.3-0.2
			c0.1-0.1,0.2-0.1,0.3-0.2c0.2-0.1,0.5-0.1,0.7-0.1c0.4,0,0.7,0.1,1,0.2c0.3,0.2,0.5,0.4,0.7,0.7v0c0.2,0.3,0.2,0.8,0.2,1.4v3.7
			h-1.2V52c0-0.5,0-0.8-0.1-1c-0.1-0.2-0.2-0.3-0.3-0.4c-0.1-0.1-0.2-0.1-0.3-0.1c-0.1,0-0.2,0-0.3,0c-0.1,0-0.2,0-0.4,0.1
			c-0.1,0-0.2,0.1-0.3,0.2c-0.1,0.1-0.2,0.2-0.3,0.3c-0.1,0.1-0.2,0.2-0.3,0.4c-0.1,0.3-0.2,0.7-0.2,1.2V55.3z"/>
		<path fill="#00524C" d="M151,46.9h1.2v8.5H151v-0.7c-0.1,0.1-0.1,0.2-0.2,0.2c-0.1,0.1-0.1,0.1-0.2,0.2c-0.1,0.1-0.2,0.1-0.3,0.2
			c-0.1,0.1-0.2,0.1-0.4,0.1c-0.1,0-0.2,0.1-0.4,0.1c-0.1,0-0.2,0-0.4,0c-0.5,0-0.9-0.1-1.2-0.4c-0.4-0.2-0.7-0.6-0.9-1.1
			c-0.2-0.5-0.3-1-0.3-1.6c0-0.9,0.2-1.6,0.7-2.2c0.4-0.6,1.1-0.9,1.8-0.9c0.3,0,0.5,0,0.7,0.1c0.2,0.1,0.4,0.2,0.6,0.3
			c0.1,0,0.1,0.1,0.2,0.2c0.1,0.1,0.1,0.1,0.2,0.2V46.9z M151,52.4c0-0.6-0.1-1.1-0.4-1.5c-0.3-0.4-0.6-0.6-1.1-0.6
			c-0.4,0-0.8,0.2-1,0.5c-0.1,0.2-0.3,0.4-0.3,0.6c-0.1,0.3-0.1,0.6-0.1,0.9c0,0.4,0,0.7,0.1,1c0.1,0.3,0.2,0.5,0.3,0.7
			c0.1,0.1,0.3,0.3,0.5,0.3c0.2,0.1,0.4,0.1,0.6,0.1c0.3,0,0.5-0.1,0.8-0.2c0.1-0.1,0.2-0.2,0.3-0.3c0.1-0.1,0.2-0.3,0.2-0.4
			c0.1-0.2,0.1-0.3,0.1-0.5C151,52.7,151,52.5,151,52.4z"/>
		<path fill="#00524C" d="M158.5,55.3h-1.3v-8.2h1.3V55.3z"/>
		<path fill="#00524C" d="M161.1,55.3h-1.2v-5.9h1.2v0.7c0.1-0.1,0.1-0.2,0.2-0.2c0.1-0.1,0.1-0.1,0.2-0.2c0.1-0.1,0.2-0.1,0.3-0.2
			c0.1-0.1,0.2-0.1,0.3-0.2c0.2-0.1,0.5-0.1,0.7-0.1c0.4,0,0.7,0.1,1,0.2c0.3,0.2,0.5,0.4,0.7,0.7v0c0.2,0.3,0.3,0.8,0.3,1.4v3.7
			h-1.2V52c0-0.5,0-0.8-0.1-1c-0.1-0.2-0.2-0.3-0.4-0.4c-0.1-0.1-0.2-0.1-0.3-0.1c-0.1,0-0.2,0-0.3,0c-0.1,0-0.2,0-0.4,0.1
			c-0.1,0-0.2,0.1-0.4,0.2c-0.1,0.1-0.2,0.2-0.3,0.3c-0.1,0.1-0.2,0.2-0.2,0.4c-0.1,0.3-0.2,0.7-0.2,1.2V55.3z"/>
		<path fill="#00524C" d="M170.1,46.9h1.2v8.5h-1.2v-0.7c-0.1,0.1-0.1,0.2-0.2,0.2c-0.1,0.1-0.1,0.1-0.2,0.2
			c-0.1,0.1-0.2,0.1-0.3,0.2c-0.1,0.1-0.2,0.1-0.4,0.1c-0.1,0-0.2,0.1-0.4,0.1c-0.1,0-0.2,0-0.4,0c-0.5,0-0.9-0.1-1.3-0.4
			c-0.4-0.2-0.7-0.6-0.9-1.1c-0.2-0.5-0.3-1-0.3-1.6c0-0.9,0.2-1.6,0.7-2.2c0.4-0.6,1.1-0.9,1.8-0.9c0.3,0,0.5,0,0.7,0.1
			c0.2,0.1,0.4,0.2,0.6,0.3c0.1,0,0.1,0.1,0.2,0.2c0.1,0.1,0.1,0.1,0.2,0.2V46.9z M170.1,52.4c0-0.6-0.1-1.1-0.4-1.5
			c-0.3-0.4-0.6-0.6-1.1-0.6c-0.4,0-0.8,0.2-1.1,0.5c-0.1,0.2-0.3,0.4-0.3,0.6c-0.1,0.3-0.1,0.6-0.1,0.9c0,0.4,0,0.7,0.1,1
			c0.1,0.3,0.2,0.5,0.3,0.7c0.1,0.1,0.3,0.3,0.5,0.3c0.2,0.1,0.4,0.1,0.6,0.1c0.3,0,0.5-0.1,0.8-0.2c0.1-0.1,0.2-0.2,0.3-0.3
			c0.1-0.1,0.2-0.3,0.2-0.4c0.1-0.2,0.1-0.3,0.1-0.5C170.1,52.7,170.1,52.5,170.1,52.4z"/>
		<path fill="#00524C" d="M176.4,49.4h1.2v5.9h-1.2v-0.7c-0.1,0.1-0.1,0.2-0.2,0.2c-0.1,0.1-0.1,0.1-0.2,0.2
			c-0.2,0.2-0.4,0.3-0.6,0.4c-0.2,0.1-0.4,0.1-0.7,0.1c-0.6,0-1-0.2-1.4-0.5c-0.4-0.3-0.6-1-0.6-1.9v-3.7h1.2v3.3
			c0,0.8,0.1,1.3,0.3,1.4c0.1,0.1,0.2,0.1,0.3,0.2c0.1,0,0.3,0.1,0.4,0.1c0.3,0,0.5-0.1,0.7-0.2h0c0.1-0.1,0.2-0.2,0.3-0.3
			c0.1-0.1,0.2-0.2,0.2-0.4c0.1-0.3,0.2-0.7,0.2-1.2V49.4z"/>
		<path fill="#00524C" d="M178.8,53.6h1.2v0.1c0,0.2,0.1,0.4,0.2,0.5h0c0.2,0.1,0.5,0.2,0.9,0.2c0.4,0,0.7-0.1,0.9-0.3
			c0.2-0.2,0.3-0.4,0.3-0.6c0-0.3-0.2-0.5-0.6-0.6l-0.5-0.1l-0.3-0.1l-0.7-0.2c-0.8-0.3-1.2-0.8-1.2-1.5c0-0.2,0-0.5,0.1-0.7
			c0.1-0.2,0.2-0.4,0.4-0.6c0.2-0.2,0.4-0.3,0.7-0.4c0.3-0.1,0.6-0.1,1-0.1c0.8,0,1.3,0.2,1.6,0.5c0.3,0.3,0.5,0.7,0.5,1.1v0.1h-1.2
			v-0.1c0-0.1,0-0.1-0.1-0.2c-0.1-0.1-0.1-0.1-0.2-0.2c-0.1,0-0.2-0.1-0.3-0.1c-0.1,0-0.2,0-0.4,0c-0.3,0-0.6,0.1-0.8,0.2
			c-0.2,0.1-0.2,0.3-0.2,0.5c0,0.1,0.1,0.3,0.2,0.4c0.1,0.1,0.3,0.2,0.6,0.3l0.5,0.1l0.3,0.1l0,0c0.2,0.1,0.4,0.1,0.6,0.2
			c0.2,0,0.3,0.1,0.3,0.1c0.1,0,0.1,0.1,0.2,0.1c0.1,0,0.1,0.1,0.2,0.1c0.2,0.1,0.3,0.3,0.4,0.5c0.1,0.2,0.1,0.4,0.1,0.7
			c0,0.6-0.2,1.1-0.6,1.5c-0.4,0.4-1,0.6-1.8,0.6c-0.5,0-0.9-0.1-1.2-0.2c-0.3-0.1-0.6-0.3-0.8-0.6c-0.2-0.3-0.3-0.6-0.3-0.9V53.6z"
			/>
		<path fill="#00524C" d="M188.4,55.3c-0.3,0.1-0.5,0.1-0.7,0.2c-0.2,0-0.4,0-0.5,0c-0.4,0-0.7-0.1-1-0.2c-0.3-0.1-0.5-0.4-0.7-0.7
			c-0.2-0.3-0.2-0.7-0.2-1.4v-2.8h-1v-1h1v-1.3h1.2v1.3h1.7v1h-1.7V53c0,0.2,0,0.4,0,0.6c0,0.2,0,0.3,0.1,0.4
			c0.1,0.2,0.2,0.3,0.3,0.4c0.2,0.1,0.3,0.1,0.5,0.1c0.2,0,0.5-0.1,1-0.2V55.3z"/>
		<path fill="#00524C" d="M190.6,55.3h-1.2v-5.9h1.2v0.7c0.1-0.2,0.3-0.3,0.4-0.5c0.2-0.1,0.3-0.2,0.5-0.3c0.2-0.1,0.4-0.1,0.7-0.1
			c0.2,0,0.4,0,0.6,0.1v1.3c-0.2-0.1-0.3-0.1-0.5-0.2c-0.1,0-0.3-0.1-0.4-0.1c-0.3,0-0.6,0.1-1,0.4l0,0c-0.3,0.3-0.5,0.8-0.5,1.6
			V55.3z"/>
		<path fill="#00524C" d="M195.5,55l-2.5-5.6h1.3l1.8,4c0.3-0.7,0.6-1.3,0.9-2c0.3-0.7,0.6-1.3,0.9-2h1.2l-2.5,5.9
			c-0.1,0.2-0.1,0.3-0.2,0.5c-0.1,0.2-0.1,0.3-0.2,0.4c-0.1,0.1-0.1,0.3-0.2,0.4c-0.1,0.1-0.1,0.2-0.2,0.2c-0.1,0.1-0.2,0.2-0.4,0.3
			c-0.1,0.1-0.3,0.2-0.4,0.2c-0.1,0-0.3,0.1-0.4,0.1c-0.2,0-0.4,0-0.6,0h-0.8v-1h0.6c0.3,0,0.5,0,0.6-0.1c0.2-0.1,0.3-0.2,0.4-0.3
			c0.1-0.1,0.3-0.5,0.5-1L195.5,55z"/>
	</g>
</g>
</svg>
